<mxfile host="65bd71144e">
    <diagram id="GRZmGPEfm0YbrWzOwQty" name="Page-1">
        <mxGraphModel dx="743" dy="701" grid="1" gridSize="10" guides="1" tooltips="1" connect="1" arrows="1" fold="1" page="1" pageScale="1" pageWidth="850" pageHeight="1100" math="0" shadow="0">
            <root>
                <mxCell id="0"/>
                <mxCell id="1" parent="0"/>
                <mxCell id="5" value="" style="edgeStyle=none;html=1;fontSize=15;" edge="1" parent="1" source="3" target="4">
                    <mxGeometry relative="1" as="geometry"/>
                </mxCell>
                <mxCell id="3" value="Start" style="strokeWidth=2;html=1;shape=mxgraph.flowchart.terminator;whiteSpace=wrap;fontSize=15;" vertex="1" parent="1">
                    <mxGeometry x="220" y="60" width="120" height="70" as="geometry"/>
                </mxCell>
                <mxCell id="7" value="" style="edgeStyle=none;html=1;fontSize=15;" edge="1" parent="1" source="4" target="6">
                    <mxGeometry relative="1" as="geometry"/>
                </mxCell>
                <mxCell id="4" value="Input userAge" style="shape=parallelogram;html=1;strokeWidth=2;perimeter=parallelogramPerimeter;whiteSpace=wrap;rounded=1;arcSize=12;size=0.23;fontSize=15;" vertex="1" parent="1">
                    <mxGeometry x="195" y="190" width="170" height="70" as="geometry"/>
                </mxCell>
                <mxCell id="9" value="" style="edgeStyle=none;html=1;fontSize=15;" edge="1" parent="1" source="6" target="8">
                    <mxGeometry relative="1" as="geometry"/>
                </mxCell>
                <mxCell id="15" value="" style="edgeStyle=none;html=1;fontSize=15;" edge="1" parent="1" source="6" target="12">
                    <mxGeometry relative="1" as="geometry"/>
                </mxCell>
                <mxCell id="6" value="If userAge&amp;nbsp; &amp;gt;= 17" style="strokeWidth=2;html=1;shape=mxgraph.flowchart.decision;whiteSpace=wrap;fontSize=15;" vertex="1" parent="1">
                    <mxGeometry x="205" y="320" width="150" height="140" as="geometry"/>
                </mxCell>
                <mxCell id="11" value="" style="edgeStyle=none;html=1;fontSize=15;" edge="1" parent="1" source="8" target="10">
                    <mxGeometry relative="1" as="geometry"/>
                </mxCell>
                <mxCell id="8" value="&amp;nbsp; Print &quot;You can see&lt;br&gt;&amp;nbsp;an R rated movie&quot;" style="shape=parallelogram;html=1;strokeWidth=2;perimeter=parallelogramPerimeter;whiteSpace=wrap;rounded=1;arcSize=12;size=0.23;fontSize=15;" vertex="1" parent="1">
                    <mxGeometry x="195" y="520" width="170" height="80" as="geometry"/>
                </mxCell>
                <mxCell id="10" value="Stop" style="strokeWidth=2;html=1;shape=mxgraph.flowchart.terminator;whiteSpace=wrap;fontSize=15;" vertex="1" parent="1">
                    <mxGeometry x="220" y="690" width="120" height="70" as="geometry"/>
                </mxCell>
                <mxCell id="17" value="" style="edgeStyle=none;html=1;fontSize=15;" edge="1" parent="1" source="12" target="16">
                    <mxGeometry relative="1" as="geometry"/>
                </mxCell>
                <mxCell id="28" value="" style="edgeStyle=none;html=1;fontSize=15;" edge="1" parent="1" source="12">
                    <mxGeometry relative="1" as="geometry">
                        <mxPoint x="815" y="390" as="targetPoint"/>
                    </mxGeometry>
                </mxCell>
                <mxCell id="12" value="elseIf userAge&lt;br&gt;&amp;nbsp; &amp;gt;= 13" style="strokeWidth=2;html=1;shape=mxgraph.flowchart.decision;whiteSpace=wrap;fontSize=15;" vertex="1" parent="1">
                    <mxGeometry x="510" y="320" width="150" height="140" as="geometry"/>
                </mxCell>
                <mxCell id="13" value="yes" style="text;html=1;align=center;verticalAlign=middle;resizable=0;points=[];autosize=1;strokeColor=none;fillColor=none;fontSize=15;" vertex="1" parent="1">
                    <mxGeometry x="230" y="470" width="40" height="20" as="geometry"/>
                </mxCell>
                <mxCell id="14" value="no" style="text;html=1;align=center;verticalAlign=middle;resizable=0;points=[];autosize=1;strokeColor=none;fillColor=none;fontSize=15;" vertex="1" parent="1">
                    <mxGeometry x="365" y="360" width="30" height="20" as="geometry"/>
                </mxCell>
                <mxCell id="25" value="" style="edgeStyle=none;html=1;fontSize=15;" edge="1" parent="1" source="16">
                    <mxGeometry relative="1" as="geometry">
                        <mxPoint x="585" y="719.9999999999998" as="targetPoint"/>
                    </mxGeometry>
                </mxCell>
                <mxCell id="16" value="&amp;nbsp; Print &quot;You can see&lt;br&gt;&amp;nbsp;a PG13 movie&quot;" style="shape=parallelogram;html=1;strokeWidth=2;perimeter=parallelogramPerimeter;whiteSpace=wrap;rounded=1;arcSize=12;size=0.23;fontSize=15;" vertex="1" parent="1">
                    <mxGeometry x="500" y="520" width="170" height="80" as="geometry"/>
                </mxCell>
                <mxCell id="22" value="yes" style="text;html=1;align=center;verticalAlign=middle;resizable=0;points=[];autosize=1;strokeColor=none;fillColor=none;fontSize=15;" vertex="1" parent="1">
                    <mxGeometry x="470" y="460" width="40" height="20" as="geometry"/>
                </mxCell>
                <mxCell id="23" value="no" style="text;html=1;align=center;verticalAlign=middle;resizable=0;points=[];autosize=1;strokeColor=none;fillColor=none;fontSize=15;" vertex="1" parent="1">
                    <mxGeometry x="670" y="360" width="30" height="20" as="geometry"/>
                </mxCell>
                <mxCell id="26" value="" style="edgeStyle=none;html=1;fontSize=15;" edge="1" parent="1" target="10">
                    <mxGeometry relative="1" as="geometry">
                        <mxPoint x="585" y="719.9999999999998" as="sourcePoint"/>
                    </mxGeometry>
                </mxCell>
                <mxCell id="32" value="" style="edgeStyle=none;html=1;fontSize=15;" edge="1" parent="1" target="31">
                    <mxGeometry relative="1" as="geometry">
                        <mxPoint x="815" y="390" as="sourcePoint"/>
                    </mxGeometry>
                </mxCell>
                <mxCell id="34" value="" style="edgeStyle=none;html=1;fontSize=15;" edge="1" parent="1" source="31">
                    <mxGeometry relative="1" as="geometry">
                        <mxPoint x="815" y="719.9999999999998" as="targetPoint"/>
                    </mxGeometry>
                </mxCell>
                <mxCell id="31" value="&amp;nbsp; Print &quot;You can see&lt;br&gt;&amp;nbsp;a G rated movie" style="shape=parallelogram;html=1;strokeWidth=2;perimeter=parallelogramPerimeter;whiteSpace=wrap;rounded=1;arcSize=12;size=0.23;fontSize=15;" vertex="1" parent="1">
                    <mxGeometry x="730" y="520" width="170" height="80" as="geometry"/>
                </mxCell>
                <mxCell id="35" value="" style="edgeStyle=none;html=1;fontSize=15;" edge="1" parent="1">
                    <mxGeometry relative="1" as="geometry">
                        <mxPoint x="815" y="719.9999999999998" as="sourcePoint"/>
                        <mxPoint x="585" y="719.9999999999998" as="targetPoint"/>
                    </mxGeometry>
                </mxCell>
                <mxCell id="38" value="" style="edgeStyle=none;html=1;fontSize=15;" edge="1" parent="1" source="36" target="37">
                    <mxGeometry relative="1" as="geometry"/>
                </mxCell>
                <mxCell id="36" value="elseIf userAge&lt;br&gt;&amp;nbsp; &amp;lt;13" style="strokeWidth=2;html=1;shape=mxgraph.flowchart.decision;whiteSpace=wrap;fontSize=15;" vertex="1" parent="1">
                    <mxGeometry x="740" y="320" width="150" height="140" as="geometry"/>
                </mxCell>
                <mxCell id="40" value="" style="edgeStyle=none;html=1;fontSize=15;" edge="1" parent="1" source="37" target="39">
                    <mxGeometry relative="1" as="geometry"/>
                </mxCell>
                <mxCell id="37" value="" style="shape=waypoint;sketch=0;size=6;pointerEvents=1;points=[];fillColor=default;resizable=0;rotatable=0;perimeter=centerPerimeter;snapToPoint=1;fontSize=15;strokeWidth=2;" vertex="1" parent="1">
                    <mxGeometry x="1025" y="370" width="40" height="40" as="geometry"/>
                </mxCell>
                <mxCell id="44" value="" style="edgeStyle=none;html=1;fontSize=15;" edge="1" parent="1" source="39">
                    <mxGeometry relative="1" as="geometry">
                        <mxPoint x="1050" y="724.9999999999998" as="targetPoint"/>
                    </mxGeometry>
                </mxCell>
                <mxCell id="39" value="&amp;nbsp; Print &quot;Please Input &lt;br&gt;Age&quot;" style="shape=parallelogram;html=1;strokeWidth=2;perimeter=parallelogramPerimeter;whiteSpace=wrap;rounded=1;arcSize=12;size=0.23;fontSize=15;" vertex="1" parent="1">
                    <mxGeometry x="960" y="520" width="170" height="80" as="geometry"/>
                </mxCell>
                <mxCell id="41" value="yes" style="text;html=1;align=center;verticalAlign=middle;resizable=0;points=[];autosize=1;strokeColor=none;fillColor=none;fontSize=15;" vertex="1" parent="1">
                    <mxGeometry x="740" y="460" width="40" height="20" as="geometry"/>
                </mxCell>
                <mxCell id="42" value="no" style="text;html=1;align=center;verticalAlign=middle;resizable=0;points=[];autosize=1;strokeColor=none;fillColor=none;fontSize=15;" vertex="1" parent="1">
                    <mxGeometry x="900" y="360" width="30" height="20" as="geometry"/>
                </mxCell>
                <mxCell id="46" value="" style="edgeStyle=none;html=1;fontSize=15;" edge="1" parent="1">
                    <mxGeometry relative="1" as="geometry">
                        <mxPoint x="1050" y="720" as="sourcePoint"/>
                        <mxPoint x="815" y="720" as="targetPoint"/>
                        <Array as="points">
                            <mxPoint x="930" y="720"/>
                        </Array>
                    </mxGeometry>
                </mxCell>
            </root>
        </mxGraphModel>
    </diagram>
</mxfile>